<svg width="19" height="18" viewBox="0 0 19 18" fill="none" xmlns="http://www.w3.org/2000/svg">
<path fill-rule="evenodd" clip-rule="evenodd" d="M9.5411 3.87597C9.88574 4.10573 9.97887 4.57138 9.74911 4.91603L7.52646 8.25H10.6251C10.9017 8.25 11.1558 8.40224 11.2863 8.64611C11.4168 8.88998 11.4025 9.18589 11.2491 9.41603L8.24911 13.916C8.01935 14.2607 7.55369 14.3538 7.20905 14.124C6.8644 13.8943 6.77127 13.4286 7.00103 13.084L9.22368 9.75H6.12507C5.84848 9.75 5.59433 9.59777 5.46382 9.3539C5.3333 9.11003 5.34761 8.81412 5.50103 8.58398L8.50103 4.08398C8.7308 3.73933 9.19645 3.6462 9.5411 3.87597ZM12.8883 5.30111C12.7216 5.25645 12.4958 5.25 11.7501 5.25C11.3359 5.25 11.0001 4.91422 11.0001 4.5C11.0001 4.08579 11.3359 3.75 11.7501 3.75C11.785 3.75 11.8194 3.74998 11.8533 3.74997C12.4498 3.74964 12.8928 3.7494 13.2765 3.85223C14.3118 4.12963 15.1204 4.93827 15.3979 5.97355C15.5007 6.35729 15.5004 6.80028 15.5001 7.39682C15.5001 7.43071 15.5001 7.4651 15.5001 7.5V9.931C15.5001 10.5347 15.5001 11.033 15.4669 11.4389C15.4325 11.8604 15.3586 12.248 15.1731 12.612C14.8855 13.1765 14.4265 13.6354 13.862 13.923C13.498 14.1085 13.1105 14.1824 12.6889 14.2169C12.283 14.25 11.7848 14.25 11.181 14.25H11.0001C10.5859 14.25 10.2501 13.9142 10.2501 13.5C10.2501 13.0858 10.5859 12.75 11.0001 12.75H11.1501C11.7925 12.75 12.2292 12.7494 12.5668 12.7218C12.8956 12.695 13.0638 12.6463 13.1811 12.5865C13.4633 12.4427 13.6928 12.2132 13.8366 11.931C13.8963 11.8137 13.945 11.6455 13.9719 11.3167C13.9995 10.9792 14.0001 10.5424 14.0001 9.9V7.5C14.0001 6.75424 13.9936 6.52848 13.949 6.36177C13.8103 5.84414 13.4059 5.43982 12.8883 5.30111ZM5.5691 3.75L5.75007 3.75C6.16429 3.75 6.50007 4.08579 6.50007 4.5C6.50007 4.91422 6.16429 5.25 5.75007 5.25H5.60007C4.95764 5.25 4.52092 5.25059 4.18335 5.27817C3.85454 5.30503 3.68639 5.35373 3.56909 5.41349C3.28684 5.5573 3.05737 5.78677 2.91356 6.06902C2.8538 6.18632 2.8051 6.35447 2.77824 6.68328C2.75066 7.02085 2.75007 7.45757 2.75007 8.1V10.5C2.75007 11.2458 2.75651 11.4715 2.80118 11.6382C2.93988 12.1559 3.34421 12.5602 3.86184 12.6989C4.02855 12.7436 4.25431 12.75 5.00007 12.75C5.41429 12.75 5.75007 13.0858 5.75007 13.5C5.75007 13.9142 5.41429 14.25 5.00007 14.25C4.96517 14.25 4.93078 14.25 4.89689 14.25C4.30035 14.2504 3.85735 14.2506 3.47361 14.1478C2.43834 13.8704 1.6297 13.0617 1.35229 12.0265C1.24947 11.6427 1.24971 11.1997 1.25004 10.6032C1.25005 10.5693 1.25007 10.5349 1.25007 10.5L1.25007 8.06903C1.25006 7.4653 1.25005 6.96703 1.28322 6.56113C1.31766 6.13956 1.39158 5.75203 1.57705 5.38803C1.86467 4.82355 2.32361 4.3646 2.8881 4.07698C3.2521 3.89152 3.63963 3.81759 4.0612 3.78315C4.4671 3.74999 4.96537 3.74999 5.5691 3.75ZM17.0001 7.5C17.4143 7.5 17.7501 7.83579 17.7501 8.25V9.75C17.7501 10.1642 17.4143 10.5 17.0001 10.5C16.5859 10.5 16.2501 10.1642 16.2501 9.75V8.25C16.2501 7.83579 16.5859 7.5 17.0001 7.5Z" fill="#F2C626"/>
</svg>
