<svg width="32" height="33" viewBox="0 0 32 33" fill="none" xmlns="http://www.w3.org/2000/svg">
<path d="M6.6665 17.5597H10.6665M2.6665 12.2264L5.33317 13.5597L7.02736 8.47717C7.37706 7.42807 7.55191 6.90353 7.87622 6.51571C8.16261 6.17325 8.53039 5.90817 8.94585 5.74477C9.41631 5.55974 9.96924 5.55974 11.0751 5.55974H20.9246C22.0304 5.55974 22.5834 5.55974 23.0538 5.74477C23.4693 5.90817 23.8371 6.17325 24.1235 6.51571C24.4478 6.90353 24.6226 7.42807 24.9723 8.47717L26.6665 13.5597L29.3332 12.2264M21.3332 17.5597H25.3332M9.0665 13.5597H22.9332C25.1734 13.5597 26.2935 13.5597 27.1491 13.9957C27.9018 14.3792 28.5137 14.9911 28.8972 15.7438C29.3332 16.5994 29.3332 17.7195 29.3332 19.9597V23.5597C29.3332 24.1793 29.3332 24.489 29.2819 24.7466C29.0715 25.8045 28.2446 26.6314 27.1867 26.8418C26.9291 26.8931 26.6194 26.8931 25.9998 26.8931H25.3332C23.8604 26.8931 22.6665 25.6992 22.6665 24.2264C22.6665 23.8582 22.368 23.5597 21.9998 23.5597H9.99984C9.63165 23.5597 9.33317 23.8582 9.33317 24.2264C9.33317 25.6992 8.13926 26.8931 6.6665 26.8931H5.99984C5.3803 26.8931 5.07053 26.8931 4.81293 26.8418C3.75509 26.6314 2.92816 25.8045 2.71774 24.7466C2.6665 24.489 2.6665 24.1793 2.6665 23.5597V19.9597C2.6665 17.7195 2.6665 16.5994 3.10248 15.7438C3.48597 14.9911 4.09789 14.3792 4.85054 13.9957C5.70619 13.5597 6.82629 13.5597 9.0665 13.5597Z" stroke="white" stroke-width="2.2" stroke-linecap="round" stroke-linejoin="round"/>
</svg>
