<svg width="25" height="25" viewBox="0 0 25 25" fill="none" xmlns="http://www.w3.org/2000/svg">
<path d="M2.03003 11.9303L4.02944 13.9303L6.03003 11.9303M3.78491 13.4303C3.74861 13.102 3.72998 12.7683 3.72998 12.4303C3.72998 7.45977 7.75942 3.43033 12.73 3.43033C17.7005 3.43033 21.73 7.45977 21.73 12.4303C21.73 17.4009 17.7005 21.4303 12.73 21.4303C9.90271 21.4303 7.37994 20.1267 5.72998 18.0877" stroke="#8E8E93" stroke-width="2" stroke-linecap="round" stroke-linejoin="round"/>
<path fill-rule="evenodd" clip-rule="evenodd" d="M12.4074 6.43033C12.9419 6.43033 13.3752 6.87804 13.3752 7.43033V11.8951L15.8475 13.5983C16.2922 13.9046 16.4123 14.5255 16.1159 14.985C15.8194 15.4446 15.2186 15.5687 14.7738 15.2624L11.8706 13.2624C11.6014 13.0769 11.4397 12.7647 11.4397 12.4303V7.43033C11.4397 6.87804 11.873 6.43033 12.4074 6.43033Z" fill="#8E8E93"/>
</svg>
