<svg width="19" height="18" viewBox="0 0 19 18" fill="none" xmlns="http://www.w3.org/2000/svg">
<g clip-path="url(#clip0_26_832)">
<path fill-rule="evenodd" clip-rule="evenodd" d="M9.49121 4.5538C8.39814 4.89283 7.24659 5.25 6.08301 5.25C5.31261 5.25 4.62385 5.16814 4.04237 5.05641C3.64649 4.98035 3.38276 4.93 3.1928 4.90489C3.15536 4.89994 3.12438 4.89648 3.09891 4.89413C3.09728 4.91063 3.09564 4.93005 3.09414 4.95269C3.08341 5.11412 3.08301 5.33988 3.08301 5.69164L3.08301 13.7529C3.08301 13.7808 3.08304 13.7987 3.08324 13.8126C3.0849 13.8153 3.08662 13.8179 3.08839 13.8206C3.09014 13.8233 3.09189 13.826 3.09361 13.8285C3.48456 13.9942 4.36761 14.25 6.08301 14.25C7.46078 14.25 8.67924 13.9068 9.8937 13.5332C9.98695 13.5045 10.0807 13.4754 10.1748 13.4462C11.2679 13.1072 12.4194 12.75 13.583 12.75C14.3534 12.75 15.0422 12.8319 15.6237 12.9436C16.0195 13.0196 16.2833 13.07 16.4732 13.0951C16.5107 13.1001 16.5416 13.1035 16.5671 13.1059C16.5687 13.0894 16.5704 13.0699 16.5719 13.0473C16.5826 12.8859 16.583 12.6601 16.583 12.3084V4.24706C16.583 4.21917 16.583 4.20131 16.5828 4.18736C16.5811 4.18474 16.5794 4.18206 16.5776 4.17935C16.5759 4.17666 16.5741 4.17402 16.5724 4.17146C16.1815 4.00579 15.2984 3.75 13.583 3.75C12.2052 3.75 10.9868 4.09315 9.77233 4.46683C9.67907 4.49553 9.58536 4.52459 9.49121 4.5538ZM16.6559 13.1102C16.6576 13.1101 16.6586 13.11 16.6587 13.11L16.6559 13.1102ZM3.0101 4.88977C3.00826 4.88995 3.00728 4.88999 3.00725 4.88997L3.0101 4.88977ZM9.3312 3.03317C10.5542 2.65684 11.9608 2.25 13.583 2.25C15.4922 2.25 16.595 2.54168 17.2098 2.81288C17.2116 2.81366 17.2135 2.81452 17.2157 2.81547C17.2482 2.82971 17.3227 2.86236 17.4045 2.91603C17.4879 2.97075 17.5575 3.03242 17.6186 3.09071C17.7131 3.18085 17.7921 3.29553 17.8342 3.36023C17.8764 3.42492 17.9494 3.54348 17.9938 3.66628C18.0831 3.91355 18.0831 4.08912 18.083 4.23698L18.083 12.3337C18.083 12.6528 18.083 12.9293 18.0686 13.1467C18.0551 13.3497 18.0247 13.6335 17.8786 13.8839C17.7991 14.0202 17.6953 14.1642 17.5431 14.29C17.3908 14.4158 17.2298 14.4905 17.0809 14.5429C16.7969 14.6428 16.4863 14.6099 16.2767 14.5822C16.0377 14.5506 15.7303 14.4915 15.3642 14.4212L15.3406 14.4166C14.8409 14.3206 14.2474 14.25 13.583 14.25C12.6571 14.25 11.7186 14.5397 10.5632 14.8964C10.488 14.9196 10.4119 14.9431 10.3348 14.9668C9.11178 15.3432 7.70524 15.75 6.08301 15.75C4.17386 15.75 3.07104 15.4583 2.45623 15.1871C2.45446 15.1863 2.45249 15.1855 2.45033 15.1845C2.41782 15.1703 2.34332 15.1376 2.26152 15.084C2.17813 15.0292 2.10849 14.9676 2.04741 14.9093C1.95295 14.8191 1.87396 14.7045 1.83179 14.6398C1.78962 14.5751 1.71657 14.4565 1.67222 14.3337C1.58291 14.0865 1.58296 13.9109 1.58301 13.763L1.58301 5.6663C1.583 5.34719 1.58299 5.07066 1.59744 4.85325C1.61092 4.6503 1.64133 4.36652 1.78743 4.11613C1.86696 3.97982 1.97073 3.83579 2.12297 3.71002C2.27521 3.58424 2.43623 3.50952 2.5851 3.45713C2.86915 3.35718 3.17976 3.39011 3.38937 3.41782C3.62829 3.4494 3.93573 3.50848 4.3018 3.57882L4.3254 3.58336C4.82511 3.67937 5.41863 3.75 6.08301 3.75C7.00894 3.75 7.94739 3.46029 9.10279 3.1036C9.17799 3.08039 9.2541 3.05689 9.3312 3.03317ZM14.333 6C14.7472 6 15.083 6.33579 15.083 6.75V9.75C15.083 10.1642 14.7472 10.5 14.333 10.5C13.9188 10.5 13.583 10.1642 13.583 9.75V6.75C13.583 6.33579 13.9188 6 14.333 6ZM9.83301 7.875C9.21169 7.875 8.70801 8.37868 8.70801 9C8.70801 9.62132 9.21169 10.125 9.83301 10.125C10.4543 10.125 10.958 9.62132 10.958 9C10.958 8.37868 10.4543 7.875 9.83301 7.875ZM7.20801 9C7.20801 7.55025 8.38326 6.375 9.83301 6.375C11.2828 6.375 12.458 7.55025 12.458 9C12.458 10.4497 11.2828 11.625 9.83301 11.625C8.38326 11.625 7.20801 10.4497 7.20801 9ZM5.33301 7.5C5.74723 7.5 6.08301 7.83579 6.08301 8.25V11.25C6.08301 11.6642 5.74723 12 5.33301 12C4.9188 12 4.58301 11.6642 4.58301 11.25V8.25C4.58301 7.83579 4.9188 7.5 5.33301 7.5Z" fill="#2AC24C"/>
</g>
<defs>
<clipPath id="clip0_26_832">
<rect width="18" height="18" fill="white" transform="translate(0.833008)"/>
</clipPath>
</defs>
</svg>
