<svg width="24" height="24" viewBox="0 0 24 24" fill="none" xmlns="http://www.w3.org/2000/svg">
<path d="M18.7537 20.3656C17.9915 20.7732 17.2419 20.8999 15.6722 20.8999H13.0189C13.0126 20.9 13.0063 20.9001 13 20.9001C12.5029 20.9001 12.1 20.4972 12.1 20.0001C12.1 19.503 12.5029 19.1001 13 19.1001C13 19.1001 13 19.1001 13 19.1001L15.6722 19.0999C17.1589 19.0999 17.5428 18.972 17.9048 18.7784C18.2407 18.5988 18.4989 18.3406 18.6785 18.0047C18.8721 17.6427 19 17.2588 19 15.7721L19 8.22767C19 6.741 18.8721 6.35707 18.6785 5.99509C18.4989 5.65924 18.2407 5.40105 17.9048 5.22143C17.5428 5.02784 17.1589 4.8999 15.6722 4.8999L13.0189 4.8999C13.0126 4.90003 13.0063 4.9001 13 4.9001C12.5029 4.9001 12.1 4.49715 12.1 4.0001C12.1 3.50304 12.5029 3.1001 13 3.1001C13 3.1001 13 3.1001 13 3.1001L15.6722 3.0999C17.2419 3.0999 17.9915 3.22656 18.7537 3.63417C19.4032 3.98154 19.9184 4.49668 20.2657 5.14621C20.6733 5.90836 20.8 6.65802 20.8 8.22767V15.7721C20.8 17.3418 20.6733 18.0914 20.2657 18.8536C19.9184 19.5031 19.4032 20.0183 18.7537 20.3656Z" fill="#F2271C"/>
<path d="M9.3636 15.3636L11.8271 12.9001H3.9C3.40294 12.9001 3 12.4972 3 12.0001C3 11.5031 3.40294 11.1001 3.9 11.1001H11.8273L9.3636 8.63641C9.01213 8.28494 9.01213 7.71509 9.3636 7.36362C9.71508 7.01214 10.2849 7.01214 10.6364 7.36362L14.6364 11.3636C14.9879 11.7151 14.9879 12.2849 14.6364 12.6364L10.6364 16.6364C10.2849 16.9879 9.71508 16.9879 9.3636 16.6364C9.01213 16.2849 9.01213 15.7151 9.3636 15.3636Z" fill="#F2271C"/>
</svg>
