<svg width="24" height="24" viewBox="0 0 24 24" fill="none" xmlns="http://www.w3.org/2000/svg">
<path fill-rule="evenodd" clip-rule="evenodd" d="M6.24246 8.90001C6.62114 10.061 7.71264 10.9 9.0001 10.9C10.2876 10.9 11.3791 10.061 11.7577 8.90001C14.5052 8.90001 17.2526 8.90001 20.0001 8.90001C20.4972 8.90001 20.9001 8.49706 20.9001 8.00001C20.9001 7.50295 20.4972 7.10001 20.0001 7.10001C17.2526 7.10001 14.5052 7.10001 11.7577 7.10001C11.748 7.06964 11.761 7.1101 11.7577 7.10001C11.3791 5.93897 10.2876 5.10001 9.0001 5.10001C7.71264 5.10001 6.62114 5.93897 6.24246 7.10001C5.49501 7.10001 4.74755 7.10001 4.0001 7.10001C3.50304 7.10001 3.1001 7.50295 3.1001 8.00001C3.1001 8.49706 3.50304 8.90001 4.0001 8.90001C4.74755 8.90001 5.49501 8.90001 6.24246 8.90001ZM9.0001 6.90001C8.39258 6.90001 7.9001 7.39249 7.9001 8.00001C7.9001 8.60752 8.39258 9.10001 9.0001 9.10001C9.60761 9.10001 10.1001 8.60752 10.1001 8.00001C10.1001 7.39249 9.60761 6.90001 9.0001 6.90001Z" fill="white"/>
<path fill-rule="evenodd" clip-rule="evenodd" d="M3.1001 16C3.1001 15.5029 3.50304 15.1 4.0001 15.1C6.74755 15.1 9.49501 15.1 12.2425 15.1C12.6211 13.939 13.7126 13.1 15.0001 13.1C16.2876 13.1 17.3791 13.939 17.7577 15.1C17.7577 15.1 19.4787 15.1 20.0001 15.1C20.4972 15.1 20.9001 15.5029 20.9001 16C20.9001 16.4971 20.4972 16.9 20.0001 16.9C19.7779 16.9 17.7577 16.9 17.7577 16.9C17.3791 18.061 16.2876 18.9 15.0001 18.9C13.7126 18.9 12.6211 18.061 12.2425 16.9C9.49501 16.9 6.74755 16.9 4.0001 16.9C3.50304 16.9 3.1001 16.4971 3.1001 16ZM13.9001 16C13.9001 15.3925 14.3926 14.9 15.0001 14.9C15.6076 14.9 16.1001 15.3925 16.1001 16C16.1001 16.6075 15.6076 17.1 15.0001 17.1C14.3926 17.1 13.9001 16.6075 13.9001 16Z" fill="white"/>
</svg>
