<svg width="25" height="25" viewBox="0 0 25 25" fill="none" xmlns="http://www.w3.org/2000/svg">
<path fill-rule="evenodd" clip-rule="evenodd" d="M23.0485 1.54866C23.3737 1.72267 23.5767 2.06153 23.5767 2.43033V18.4303C23.5767 18.7647 23.4096 19.0769 23.1314 19.2624L17.1314 23.2624C16.8162 23.4725 16.4094 23.4865 16.0805 23.2986L9.57666 19.5821L3.0728 23.2986C2.7633 23.4754 2.38305 23.4742 2.07473 23.2952C1.76642 23.1163 1.57666 22.7868 1.57666 22.4303V6.43033C1.57666 6.07147 1.76895 5.74013 2.08052 5.56209L9.08052 1.56209C9.38795 1.38641 9.76537 1.38641 10.0728 1.56209L16.5362 5.25546L22.022 1.59828C22.3288 1.39371 22.7234 1.37464 23.0485 1.54866ZM15.5767 7.01065L10.5767 4.15351V17.85L15.5767 20.7072V7.01065ZM17.5767 20.5618L21.5767 17.8951V4.29885L17.5767 6.96551V20.5618ZM8.57666 17.85V4.15351L3.57666 7.01065V20.7072L8.57666 17.85Z" fill="#9D36F8"/>
</svg>
