<svg width="25" height="25" viewBox="0 0 25 25" fill="none" xmlns="http://www.w3.org/2000/svg">
<path fill-rule="evenodd" clip-rule="evenodd" d="M8.02873 2.43033H16.5113C17.3163 2.43032 17.9807 2.43031 18.5219 2.47452C19.084 2.52045 19.6007 2.61901 20.086 2.8663C20.8386 3.2498 21.4506 3.86172 21.8341 4.61437C22.0813 5.0997 22.1799 5.61641 22.2258 6.1785C22.2701 6.71969 22.27 7.38405 22.27 8.18901V13.6717C22.27 14.4766 22.2701 15.141 22.2258 15.6822C22.1799 16.2443 22.0813 16.761 21.8341 17.2463C21.4506 17.9989 20.8386 18.6109 20.086 18.9944C19.6007 19.2416 19.084 19.3402 18.5219 19.3861C17.9807 19.4304 17.3163 19.4303 16.5114 19.4303H9.95378C9.28967 19.4303 9.09627 19.435 8.92029 19.4712C8.74376 19.5074 8.57294 19.5673 8.41247 19.6493C8.25248 19.731 8.09852 19.8482 7.57994 20.263L5.1668 22.1935C4.98312 22.3405 4.7959 22.4904 4.6313 22.5992C4.47387 22.7033 4.16863 22.8896 3.77165 22.89C3.31484 22.8905 2.8827 22.6828 2.59771 22.3258C2.35006 22.0155 2.30485 21.6608 2.28778 21.4728C2.26993 21.2763 2.26998 21.0365 2.27002 20.8013L2.27003 8.18903C2.27002 7.38406 2.27 6.7197 2.31422 6.1785C2.36015 5.61641 2.45871 5.0997 2.706 4.61437C3.0895 3.86172 3.70142 3.2498 4.45407 2.8663C4.9394 2.61901 5.45611 2.52045 6.0182 2.47452C6.5594 2.43031 7.22376 2.43032 8.02873 2.43033ZM6.18107 4.46788C5.74265 4.5037 5.51845 4.56863 5.36205 4.64832C4.98572 4.84006 4.67976 5.14602 4.48802 5.52235C4.40833 5.67875 4.3434 5.90295 4.30758 6.34137C4.27081 6.79146 4.27003 7.37375 4.27003 8.23033V20.3497L6.33055 18.7013C6.35329 18.6831 6.37572 18.6651 6.39787 18.6474C6.81994 18.3095 7.13899 18.054 7.50256 17.8683C7.82351 17.7043 8.16515 17.5845 8.5182 17.512C8.91814 17.4299 9.32687 17.4301 9.86757 17.4303C9.89594 17.4303 9.92467 17.4303 9.95378 17.4303H16.47C17.3266 17.4303 17.9089 17.4296 18.359 17.3928C18.7974 17.357 19.0216 17.292 19.178 17.2123C19.5543 17.0206 19.8603 16.7146 20.052 16.3383C20.1317 16.1819 20.1967 15.9577 20.2325 15.5193C20.2693 15.0692 20.27 14.4869 20.27 13.6303V8.23033C20.27 7.37375 20.2693 6.79146 20.2325 6.34137C20.1967 5.90295 20.1317 5.67875 20.052 5.52235C19.8603 5.14602 19.5543 4.84006 19.178 4.64832C19.0216 4.56863 18.7974 4.5037 18.359 4.46788C17.9089 4.43111 17.3266 4.43033 16.47 4.43033H8.07003C7.21345 4.43033 6.63116 4.43111 6.18107 4.46788Z" fill="#8E8E93"/>
</svg>
