<svg width="19" height="18" viewBox="0 0 19 18" fill="none" xmlns="http://www.w3.org/2000/svg">
<g clip-path="url(#clip0_26_860)">
<path d="M4.4165 9C4.4165 6.10051 6.76701 3.75 9.6665 3.75M13.0414 5.625L9.66643 9M17.1665 9C17.1665 13.1421 13.8086 16.5 9.6665 16.5C5.52437 16.5 2.1665 13.1421 2.1665 9C2.1665 4.85786 5.52437 1.5 9.6665 1.5C13.8086 1.5 17.1665 4.85786 17.1665 9ZM10.4165 9C10.4165 9.41421 10.0807 9.75 9.6665 9.75C9.25229 9.75 8.9165 9.41421 8.9165 9C8.9165 8.58579 9.25229 8.25 9.6665 8.25C10.0807 8.25 10.4165 8.58579 10.4165 9Z" stroke="#0073FF" stroke-width="2" stroke-linecap="round" stroke-linejoin="round"/>
</g>
<defs>
<clipPath id="clip0_26_860">
<rect width="18" height="18" fill="white" transform="translate(0.666504)"/>
</clipPath>
</defs>
</svg>
