<svg width="25" height="25" viewBox="0 0 25 25" fill="none" xmlns="http://www.w3.org/2000/svg">
<path fill-rule="evenodd" clip-rule="evenodd" d="M12.4229 4.43033C10.4899 4.43033 8.92294 5.99733 8.92294 7.93033C8.92294 9.86333 10.4899 11.4303 12.4229 11.4303C14.3559 11.4303 15.9229 9.86333 15.9229 7.93033C15.9229 5.99733 14.3559 4.43033 12.4229 4.43033ZM6.92293 7.93033C6.92293 4.89276 9.38537 2.43033 12.4229 2.43033C15.4605 2.43033 17.9229 4.89276 17.9229 7.93033C17.9229 10.9679 15.4605 13.4303 12.4229 13.4303C9.38537 13.4303 6.92293 10.9679 6.92293 7.93033ZM9.7492 14.9303C9.80626 14.9303 9.86417 14.9303 9.92294 14.9303H14.9229C14.9817 14.9303 15.0396 14.9303 15.0967 14.9303C16.3239 14.9298 17.162 14.9295 17.8744 15.1456C19.4724 15.6304 20.7229 16.8809 21.2076 18.4789C21.4237 19.1913 21.4234 20.0293 21.423 21.2566C21.423 21.3137 21.4229 21.3716 21.4229 21.4303C21.4229 21.9826 20.9752 22.4303 20.4229 22.4303C19.8707 22.4303 19.4229 21.9826 19.4229 21.4303C19.4229 19.962 19.4121 19.4495 19.2938 19.0595C19.0029 18.1007 18.2526 17.3504 17.2938 17.0595C16.9037 16.9412 16.3913 16.9303 14.9229 16.9303H9.92294C8.45462 16.9303 7.94214 16.9412 7.55208 17.0595C6.59328 17.3504 5.84296 18.1007 5.55211 19.0595C5.43379 19.4495 5.42293 19.962 5.42293 21.4303C5.42293 21.9826 4.97522 22.4303 4.42293 22.4303C3.87065 22.4303 3.42293 21.9826 3.42293 21.4303C3.42293 21.3716 3.42291 21.3137 3.42289 21.2566C3.42244 20.0293 3.42213 19.1913 3.63823 18.4789C4.12299 16.8809 5.3735 15.6304 6.97151 15.1456C7.68391 14.9295 8.52193 14.9298 9.7492 14.9303Z" fill="#8E8E93"/>
</svg>
